# xmcd
#
# Track frame offsets: 
#        150
#        18411
#        36785
#        53631
#        71407
#        94229
#        108579
#        121960
#        148759
#        169215
#        184275
#        204885
#        223482
#        246488
#
# Disc length: 3632 seconds
#
# Revision: 0
# Processed by: cddbd v1.5.2PL0 Copyright (c) Steve Scherf et al.
# Submitted via: ExactAudioCopyFreeDBPlugin 1.0
#
DISCID=d50e2e0e
DTITLE=天艺唱片 - 生命之旅CD2
DYEAR=2014
DGENRE=Acid
TTITLE0=在那东山顶上
TTITLE1=蓝色的故乡
TTITLE2=阿诺康巴
TTITLE3=洗衣歌
TTITLE4=请来雪域来观光
TTITLE5=酒歌
TTITLE6=毛主席的光辉
TTITLE7=逛新城
TTITLE8=情歌放开唱
TTITLE9=青稞美酒献给毛主席
TTITLE10=美人
TTITLE11=色拉琼色
TTITLE12=格萨尔王
TTITLE13=吉祥诺尔盖
EXTD=
EXTT0=
EXTT1=
EXTT2=
EXTT3=
EXTT4=
EXTT5=
EXTT6=
EXTT7=
EXTT8=
EXTT9=
EXTT10=
EXTT11=
EXTT12=
EXTT13=
PLAYORDER=
